<svg width="67" height="290" viewBox="0 0 67 290" fill="none" xmlns="http://www.w3.org/2000/svg">
<g filter="url(#filter0_ii_5_60)">
<path d="M0 256.5C0 275.002 14.9985 290 33.5 290V290C52.0015 290 67 275.002 67 256.5V33.5C67 14.9985 52.0015 0 33.5 0V0C14.9985 0 0 14.9985 0 33.5V256.5Z" fill="#3F74CA"/>
</g>
<g filter="url(#filter1_ii_5_60)">
<path d="M14 250C14 261.046 22.9543 270 34 270V270C45.0457 270 54 261.046 54 250V40C54 28.9543 45.0457 20 34 20V20C22.9543 20 14 28.9543 14 40V250Z" fill="url(#paint0_linear_5_60)"/>
</g>
<line x1="24.5" y1="56.5" x2="42.5" y2="56.5" stroke="#3F74CA" stroke-width="3" stroke-linecap="round"/>
<line x1="24.5" y1="183.5" x2="42.5" y2="183.5" stroke="#3F74CA" stroke-width="3" stroke-linecap="round"/>
<line x1="24.5" y1="79.5" x2="42.5" y2="79.5" stroke="#3F74CA" stroke-width="3" stroke-linecap="round"/>
<line x1="24.5" y1="207.5" x2="42.5" y2="207.5" stroke="#3F74CA" stroke-width="3" stroke-linecap="round"/>
<line x1="24.5" y1="104.5" x2="42.5" y2="104.5" stroke="#3F74CA" stroke-width="3" stroke-linecap="round"/>
<line x1="24.5" y1="231.5" x2="42.5" y2="231.5" stroke="#3F74CA" stroke-width="3" stroke-linecap="round"/>
<defs>
<filter id="filter0_ii_5_60" x="0" y="-4" width="67" height="298" filterUnits="userSpaceOnUse" color-interpolation-filters="sRGB">
<feFlood flood-opacity="0" result="BackgroundImageFix"/>
<feBlend mode="normal" in="SourceGraphic" in2="BackgroundImageFix" result="shape"/>
<feColorMatrix in="SourceAlpha" type="matrix" values="0 0 0 0 0 0 0 0 0 0 0 0 0 0 0 0 0 0 127 0" result="hardAlpha"/>
<feOffset dy="-4"/>
<feGaussianBlur stdDeviation="4"/>
<feComposite in2="hardAlpha" operator="arithmetic" k2="-1" k3="1"/>
<feColorMatrix type="matrix" values="0 0 0 0 0 0 0 0 0 0 0 0 0 0 0 0 0 0 0.25 0"/>
<feBlend mode="normal" in2="shape" result="effect1_innerShadow_5_60"/>
<feColorMatrix in="SourceAlpha" type="matrix" values="0 0 0 0 0 0 0 0 0 0 0 0 0 0 0 0 0 0 127 0" result="hardAlpha"/>
<feOffset dy="4"/>
<feGaussianBlur stdDeviation="4"/>
<feComposite in2="hardAlpha" operator="arithmetic" k2="-1" k3="1"/>
<feColorMatrix type="matrix" values="0 0 0 0 1 0 0 0 0 1 0 0 0 0 1 0 0 0 0.4 0"/>
<feBlend mode="normal" in2="effect1_innerShadow_5_60" result="effect2_innerShadow_5_60"/>
</filter>
<filter id="filter1_ii_5_60" x="14" y="16" width="40" height="258" filterUnits="userSpaceOnUse" color-interpolation-filters="sRGB">
<feFlood flood-opacity="0" result="BackgroundImageFix"/>
<feBlend mode="normal" in="SourceGraphic" in2="BackgroundImageFix" result="shape"/>
<feColorMatrix in="SourceAlpha" type="matrix" values="0 0 0 0 0 0 0 0 0 0 0 0 0 0 0 0 0 0 127 0" result="hardAlpha"/>
<feOffset dy="-4"/>
<feGaussianBlur stdDeviation="4"/>
<feComposite in2="hardAlpha" operator="arithmetic" k2="-1" k3="1"/>
<feColorMatrix type="matrix" values="0 0 0 0 0 0 0 0 0 0 0 0 0 0 0 0 0 0 0.25 0"/>
<feBlend mode="normal" in2="shape" result="effect1_innerShadow_5_60"/>
<feColorMatrix in="SourceAlpha" type="matrix" values="0 0 0 0 0 0 0 0 0 0 0 0 0 0 0 0 0 0 127 0" result="hardAlpha"/>
<feOffset dy="4"/>
<feGaussianBlur stdDeviation="4"/>
<feComposite in2="hardAlpha" operator="arithmetic" k2="-1" k3="1"/>
<feColorMatrix type="matrix" values="0 0 0 0 1 0 0 0 0 1 0 0 0 0 1 0 0 0 0.4 0"/>
<feBlend mode="normal" in2="effect1_innerShadow_5_60" result="effect2_innerShadow_5_60"/>
</filter>
<linearGradient id="paint0_linear_5_60" x1="33.9999" y1="43.5" x2="33.9999" y2="214.5" gradientUnits="userSpaceOnUse">
<stop stop-color="#FFEC70"/>
<stop offset="1" stop-color="#FFE74C"/>
</linearGradient>
</defs>
</svg>
